<?xml version="1.0" standalone="no"?>
<!DOCTYPE svg PUBLIC "-//W3C//DTD SVG 20010904//EN"
 "http://www.w3.org/TR/2001/REC-SVG-20010904/DTD/svg10.dtd">
<svg version="1.0" xmlns="http://www.w3.org/2000/svg"
 width="540.000000pt" height="540.000000pt" viewBox="0 0 540.000000 540.000000"
 preserveAspectRatio="xMidYMid meet">
<metadata>
Created by potrace 1.14, written by Peter Selinger 2001-2017
</metadata>
<g transform="translate(0.000000,540.000000) scale(0.100000,-0.100000)"
fill="#000000" stroke="none">
<path d="M0 2700 l0 -2700 2700 0 2700 0 0 2700 0 2700 -2700 0 -2700 0 0
-2700z m4092 200 c121 -34 160 -243 65 -346 -80 -87 -231 -50 -266 65 -25 87
-7 193 42 242 43 43 96 56 159 39z m-707 -23 c59 -33 85 -86 85 -172 0 -135
-65 -195 -212 -195 l-78 0 0 195 0 195 83 0 c66 0 89 -5 122 -23z m401 -175
l72 -193 -41 3 c-38 3 -41 6 -55 46 l-14 42 -73 0 -72 0 -13 -45 c-12 -43 -14
-45 -51 -45 -22 0 -39 3 -39 8 0 6 20 61 116 315 26 68 26 68 62 65 l35 -3 73
-193z"/>
<path d="M4014 2840 c-41 -16 -54 -49 -54 -130 0 -85 13 -119 52 -138 37 -18
76 -5 99 32 28 44 24 186 -6 215 -25 24 -63 33 -91 21z"/>
<path d="M3250 2705 l0 -135 39 0 c81 0 124 74 106 181 -10 58 -45 89 -101 89
l-44 0 0 -135z"/>
<path d="M3652 2742 c-12 -38 -22 -71 -22 -75 0 -4 22 -7 49 -7 l50 0 -25 72
c-13 39 -25 73 -27 74 -2 2 -13 -27 -25 -64z"/>
</g>
</svg>
